cl1 = 0.1;
pt = 0;
Point(pt+1) = {0, 0, 0, 0.1};
Point(pt+2) = {1, 0, 0, 0.1};
Point(pt+3) = {0, 1, 0, 0.1};
Point(pt+4) = {1, 1, 0, 0.1};
Point(pt+5) = {0, 0, 1, 0.1};
Point(pt+6) = {1, 0, 1, 0.1};
Point(pt+7) = {0, 1, 1, 0.1};
Point(pt+8) = {1, 1, 1, 0.1};
Line(pt+1) = {pt+5, pt+7};
Line(pt+2) = {pt+7, pt+8};
Line(pt+3) = {pt+8, pt+4};
Line(pt+4) = {pt+4, pt+3};
Line(pt+5) = {pt+3, pt+7};
Line(pt+6) = {pt+5, pt+6};
Line(pt+7) = {pt+6, pt+8};
Line(pt+8) = {pt+6, pt+2};
Line(pt+9) = {pt+2, pt+4};
Line(pt+10) = {pt+1, pt+5};
Line(pt+11) = {pt+1, pt+3};
Line(pt+12) = {pt+2, pt+1};
Line Loop(pt+1) = {pt+2, -(pt+7), -(pt+6), pt+1};
Plane Surface(pt+1) = {pt+1};
Line Loop(pt+2) = {pt+7, pt+3, -(pt+9), -(pt+8)};
Plane Surface(pt+2) = {pt+2};
Line Loop(pt+3) = {pt+2, pt+3, pt+4, pt+5};
Plane Surface(pt+3) = {pt+3};
Line Loop(pt+4) = {pt+1, -(pt+5), -(pt+11), pt+10};
Plane Surface(pt+4) = {pt+4};
Line Loop(pt+5) = {pt+12, pt+11, -(pt+4), -(pt+9)};
Plane Surface(pt+5) = {pt+5};
Line Loop(pt+6) = {pt+6, pt+8, pt+12, pt+10};
Plane Surface(pt+6) = {pt+6};
Surface Loop(pt+1) = {pt+1,pt+2,pt+3,pt+4,pt+5,pt+6};
Volume(pt+1) = {pt+1};
pt = 20;
Point(pt+1) = {1, 0, 0, 0.1};
Point(pt+2) = {2, 0, 0, 0.1};
Point(pt+3) = {1, 1, 0, 0.1};
Point(pt+4) = {2, 1, 0, 0.1};
Point(pt+5) = {1, 0, 1, 0.1};
Point(pt+6) = {2, 0, 1, 0.1};
Point(pt+7) = {1, 1, 1, 0.1};
Point(pt+8) = {2, 1, 1, 0.1};
Line(pt+1) = {pt+5, pt+7};
Line(pt+2) = {pt+7, pt+8};
Line(pt+3) = {pt+8, pt+4};
Line(pt+4) = {pt+4, pt+3};
Line(pt+5) = {pt+3, pt+7};
Line(pt+6) = {pt+5, pt+6};
Line(pt+7) = {pt+6, pt+8};
Line(pt+8) = {pt+6, pt+2};
Line(pt+9) = {pt+2, pt+4};
Line(pt+10) = {pt+1, pt+5};
Line(pt+11) = {pt+1, pt+3};
Line(pt+12) = {pt+2, pt+1};
Line Loop(pt+1) = {pt+2, -(pt+7), -(pt+6), pt+1};
Plane Surface(pt+1) = {pt+1};
Line Loop(pt+2) = {pt+7, pt+3, -(pt+9), -(pt+8)};
Plane Surface(pt+2) = {pt+2};
Line Loop(pt+3) = {pt+2, pt+3, pt+4, pt+5};
Plane Surface(pt+3) = {pt+3};
Line Loop(pt+4) = {pt+1, -(pt+5), -(pt+11), pt+10};
Plane Surface(pt+4) = {pt+4};
Line Loop(pt+5) = {pt+12, pt+11, -(pt+4), -(pt+9)};
Plane Surface(pt+5) = {pt+5};
Line Loop(pt+6) = {pt+6, pt+8, pt+12, pt+10};
Plane Surface(pt+6) = {pt+6};
Surface Loop(pt+1) = {pt+1,pt+2,pt+3,pt+4,pt+5,pt+6};
Volume(2) = {pt+1};

Physical Volume(1) = {1,2};
Physical Surface(1) = {1,3,4,5,6,21,22,23,25,26};
Physical Point(1) = {1,2,3,4,5,6,7,8,22,24,26,28};
Physical Line(1) = {1-12,22-24,26-29,32};

Coherence;
