cl1 = 0.25;
Point(1) = {0.0, 0.0, 0.0, cl1};
Point(2) = {0.0, 1.0, 0.0, cl1};
Point(3) = {0.0, 1.0, 1.0, cl1};
Point(4) = {0.0, 0.0, 1.0, cl1};
Point(5) = {0.5, 0.0, 0.0, cl1};
Point(6) = {0.5, 1.0, 0.0, cl1};
Point(7) = {0.5, 1.0, 1.0, cl1};
Point(8) = {0.5, 0.0, 1.0, cl1};
Point(9) = {1.0, 0.0, 0.0, cl1};
Point(10) = {1.0, 1.0, 0.0, cl1};
Point(11) = {1.0, 1.0, 1.0, cl1};
Point(12) = {1.0, 0.0, 1.0, cl1};
Line(101) = {1, 2};
Line(102) = {2, 3};
Line(103) = {3, 4};
Line(104) = {4, 1};
Line(105) = {5, 6};
Line(106) = {6, 7};
Line(107) = {7, 8};
Line(108) = {8, 5};
Line(109) = {9, 10};
Line(110) = {10, 11};
Line(111) = {11, 12};
Line(112) = {12, 9};
Line(113) = {1, 5};
Line(114) = {2, 6};
Line(115) = {3, 7};
Line(116) = {4, 8};
Line(117) = {5, 9};
Line(118) = {6, 10};
Line(119) = {7, 11};
Line(120) = {8, 12};
Line Loop(201) = {101, 102, 103, 104};
Plane Surface(301) = {201};
Line Loop(202) = {105, 106, 107, 108};
Plane Surface(302) = {202};
Line Loop(203) = {109, 110, 111, 112};
Plane Surface(303) = {203};
Line Loop(204) = {101, 114, -105, -113};
Plane Surface(304) = {204};
Line Loop(205) = {102, 115, -106, -114};
Plane Surface(305) = {205};
Line Loop(206) = {103, 116, -107, -115};
Plane Surface(306) = {206};
Line Loop(207) = {104, 113, -108, -116};
Plane Surface(307) = {207};
Line Loop(208) = {105, 118, -109, -117};
Plane Surface(308) = {208};
Line Loop(209) = {106, 119, -110, -118};
Plane Surface(309) = {209};
Line Loop(210) = {107, 120, -111, -119};
Plane Surface(310) = {210};
Line Loop(211) = {108, 117, -112, -120};
Plane Surface(311) = {211};
Surface Loop(1) = {301, 302, 304, 305, 306, 307};
Volume(1) = {1};
Surface Loop(2) = {302, 303, 308, 309, 310, 311};
Volume(2) = {2};
Physical Volume(1000) = {1,2};
Physical Surface(1001) = {301,303,304,305,306,307,308,309,310,311};
Physical Line(1002) = {101,102,103,104,105,106,107,108,109,110,111,112,113,114,115,116,117,118,119,120};
Physical Point(1003) = {1,2,3,4,5,6,7,8,9,10,11,12};
